#!OML:ASF F:\VICON\USERDATA\INSTALL\rory3\rory3.ASF
:FULLY-SPECIFIED
:DEGREES
1235
root -0.30358 17.1059 0.814297 4.85225 -2.92255 -6.32942
lowerback -2.64674 0.212825 -3.24912
upperback -3.76542 0.30053 -0.618036
thorax -2.40063 0.224025 1.18617
lowerneck -10.7161 -10.6362 -19.6665
upperneck 39.0727 -14.3221 7.8114
head 18.8618 -7.93102 4.15565
rclavicle 9.44227e-015 3.18055e-015
rhumerus -374.15 -39.6606 -421.734
rradius 123.156
rwrist -50.9951
rhand -40.7655 -6.06409
rfingers 7.12502
rthumb -13.7056 -35.5928
lclavicle 9.44227e-015 3.18055e-015
lhumerus 225.111 -71.5277 -180.655
lradius 101.339
lwrist -3.23033
lhand -16.8729 5.21145
lfingers 7.12502
lthumb 9.35796 34.9837
rfemur -7.36979 6.08512 25.6527
rtibia 19.8585
rfoot -16.5436 -1.45354
rtoes -10.4785
lfemur -13.1003 -9.13856 -9.13399
ltibia 32.0759
lfoot -22.3121 6.60737
ltoes -14.8846
1236
root -0.283767 17.1088 0.808316 4.79632 -2.7796 -6.14391
lowerback -2.53612 0.192963 -3.19159
upperback -3.73605 0.272618 -0.469775
thorax -2.43137 0.210999 1.30585
lowerneck -10.7709 -10.6713 -19.7066
upperneck 39.0224 -14.2963 7.6927
head 18.8306 -7.93253 4.10599
rclavicle 8.24956e-015 -2.8625e-014
rhumerus -374.419 -39.7818 -421.927
rradius 123.159
rwrist -51.0524
rhand -40.8049 -6.25041
rfingers 7.12502
rthumb -13.7436 -35.7765
lclavicle 8.24956e-015 -2.8625e-014
lhumerus 224.878 -71.5104 -180.364
lradius 101.292
lwrist -3.14209
lhand -16.0983 4.97371
lfingers 7.12502
lthumb 10.1054 34.7111
rfemur -7.37142 6.19365 25.4071
rtibia 19.9534
rfoot -16.5081 -1.82032
rtoes -10.5755
lfemur -13.0674 -9.20317 -9.38916
ltibia 31.9352
lfoot -22.215 6.40949
ltoes -14.6124
1237
root -0.258973 17.1091 0.806227 4.75616 -2.65211 -5.95424
lowerback -2.45582 0.193746 -3.02936
upperback -3.75389 0.271788 -0.326034
thorax -2.49419 0.209661 1.36236
lowerneck -10.7531 -10.7014 -19.7515
upperneck 38.9872 -14.2761 7.56473
head 18.7903 -7.94149 4.05524
rclavicle -5.06901e-015 3.18055e-015
rhumerus -374.9 -39.9143 -422
rradius 123.155
rwrist -50.9715
rhand -40.8551 -6.18062
rfingers 7.12502
rthumb -13.792 -35.7034
lclavicle -5.06901e-015 3.18055e-015
lhumerus 224.645 -71.3163 -180.123
lradius 101.272
lwrist -3.16415
lhand -15.9603 4.96791
lfingers 7.12502
lthumb 10.2384 34.6987
rfemur -7.41396 6.37034 25.1348
rtibia 20.1187
rfoot -16.5166 -2.18478
rtoes -10.1757
lfemur -13.0185 -9.29019 -9.68478
ltibia 31.7774
lfoot -22.063 6.4331
ltoes -15.2988
1238
root -0.230417 17.1121 0.80404 4.70934 -2.45404 -5.59481
lowerback -2.32384 0.151794 -2.9712
upperback -3.79617 0.212131 -0.215649
thorax -2.60936 0.182082 1.44257
lowerneck -10.7423 -10.707 -19.7129
upperneck 39.0016 -14.2223 7.38117
head 18.7564 -7.93289 3.97377
rclavicle -4.96962e-016 -2.38542e-014
rhumerus -375.431 -40.0186 -422.06
rradius 123.086
rwrist -50.832
rhand -40.676 -6.16012
rfingers 7.12502
rthumb -13.6193 -35.6946
lclavicle -4.96962e-016 -2.38542e-014
lhumerus 224.481 -71.0759 -179.958
lradius 101.235
lwrist -3.22861
lhand -15.3929 4.7592
lfingers 7.12502
lthumb 10.7858 34.4623
rfemur -7.49461 6.44478 24.663
rtibia 20.3546
rfoot -16.5927 -2.49137
rtoes -10.2289
lfemur -12.978 -9.38954 -10.1732
ltibia 31.5945
lfoot -21.9697 6.40053
ltoes -15.5991
1239
root -0.20027 17.1167 0.801696 4.69109 -2.25293 -5.29534
lowerback -2.33026 0.109688 -2.87259
upperback -3.75053 0.160576 -0.0157578
thorax -2.55619 0.155592 1.59303
lowerneck -10.7377 -10.7333 -19.78
upperneck 38.8604 -14.1993 7.30766
head 18.6643 -7.93274 3.95146
rclavicle 7.95139e-016 -5.56597e-015
rhumerus -375.694 -40.1533 -422.184
rradius 122.943
rwrist -50.6945
rhand -40.5946 -6.41387
rfingers 7.12502
rthumb -13.5409 -35.9536
lclavicle 7.95139e-016 -5.56597e-015
lhumerus 224.087 -70.9704 -179.452
lradius 101.213
lwrist -3.1463
lhand -14.3747 4.60721
lfingers 7.12502
lthumb 11.7678 34.2566
rfemur -7.64198 6.53155 24.2522
rtibia 20.6438
rfoot -16.6954 -2.78477
rtoes -10.1455
lfemur -12.9486 -9.39812 -10.5898
ltibia 31.377
lfoot -21.7986 6.41724
ltoes -16.4599
1240
root -0.169051 17.1202 0.800141 4.68439 -2.09505 -4.93883
lowerback -2.47449 0.102186 -2.84456
upperback -3.63727 0.160994 0.197701
thorax -2.35881 0.154303 1.79743
lowerneck -10.6427 -10.7746 -19.9709
upperneck 38.5166 -14.2581 7.45579
head 18.4883 -7.95371 4.0366
rclavicle -8.19987e-015 7.95139e-015
rhumerus -375.887 -40.2764 -422.307
rradius 122.751
rwrist -50.4791
rhand -40.458 -6.52491
rfingers 7.12502
rthumb -13.4093 -36.0733
lclavicle -8.19987e-015 7.95139e-015
lhumerus 223.283 -70.9288 -178.481
lradius 101.146
lwrist -2.99432
lhand -14.4573 4.61427
lfingers 7.12502
lthumb 11.6882 34.2682
rfemur -7.83233 6.7395 23.7748
rtibia 21.0003
rfoot -16.8522 -3.15799
rtoes -9.59913
lfemur -12.8948 -9.41134 -11.0788
ltibia 31.1078
lfoot -21.5539 6.39041
ltoes -16.8931
1241
root -0.136856 17.1231 0.796253 4.62777 -1.92254 -4.48127
lowerback -2.4649 0.0724183 -2.87684
upperback -3.55689 0.125849 0.39084
thorax -2.28024 0.13828 2.0142
lowerneck -10.7185 -10.771 -20.0047
upperneck 38.3612 -14.2138 7.46745
head 18.4111 -7.92658 4.05203
rclavicle 8.84592e-015 7.95139e-015
rhumerus -376.113 -40.3053 -422.473
rradius 122.57
rwrist -50.3155
rhand -40.0219 -7.07215
rfingers 7.12502
rthumb -12.9889 -36.6478
lclavicle 8.84592e-015 7.95139e-015
lhumerus 222.873 -70.9157 -177.931
lradius 101.032
lwrist -2.95416
lhand -15.1955 4.50425
lfingers 7.12502
lthumb 10.9762 34.1973
rfemur -7.96782 6.93164 23.195
rtibia 21.3856
rfoot -17.0549 -3.58414
rtoes -9.2804
lfemur -12.7879 -9.44978 -11.6864
ltibia 30.8184
lfoot -21.2951 6.39168
ltoes -17.535
1242
root -0.102704 17.1249 0.789492 4.53792 -1.7195 -4.02016
lowerback -2.32329 0.0323268 -2.8666
upperback -3.50899 0.0724229 0.608964
thorax -2.30784 0.114279 2.23265
lowerneck -10.861 -10.7592 -19.9683
upperneck 38.3256 -14.1153 7.3408
head 18.3857 -7.8849 4.00223
rclavicle -1.03865e-014 7.95139e-015
rhumerus -376.297 -40.3417 -422.623
rradius 122.36
rwrist -50.2325
rhand -39.8056 -7.57663
rfingers 7.12502
rthumb -12.7804 -37.1654
lclavicle -1.03865e-014 7.95139e-015
lhumerus 222.665 -70.8941 -177.583
lradius 100.925
lwrist -3.05918
lhand -15.8864 4.41961
lfingers 7.12502
lthumb 10.3098 34.1469
rfemur -8.09493 7.09401 22.6117
rtibia 21.8253
rfoot -17.2479 -4.07218
rtoes -9.66781
lfemur -12.6391 -9.50538 -12.295
ltibia 30.5037
lfoot -21.1292 6.05769
ltoes -16.5778
